<svg version="1.1" id="Layer_1" xmlns="http://www.w3.org/2000/svg" xmlns:xlink="http://www.w3.org/1999/xlink" x="0px" y="0px"
	 width="100%" viewBox="0 0 350 144" enable-background="new 0 0 350 144" xml:space="preserve">
<path fill="#000000" opacity="1.000000" stroke="none" 
	d="
M269.000000,145.000000 
	C179.333344,145.000000 90.166687,145.000000 1.000024,145.000000 
	C1.000016,97.000015 1.000016,49.000034 1.000008,1.000037 
	C117.666634,1.000025 234.333267,1.000025 350.999939,1.000012 
	C350.999939,48.999966 350.999939,96.999931 350.999969,144.999939 
	C323.833344,145.000000 296.666656,145.000000 269.000000,145.000000 
M172.176132,61.903072 
	C172.196686,70.286484 172.217224,78.669891 172.135010,87.831963 
	C172.401184,89.590584 172.667358,91.349205 173.099625,93.880516 
	C173.594406,94.495201 174.087173,95.641510 174.584274,95.643394 
	C180.380829,95.665421 186.388153,96.441315 191.923981,95.185349 
	C199.532516,93.459114 202.186600,85.605957 197.865921,80.071121 
	C196.880112,78.808289 195.392624,77.937088 194.020706,76.789146 
	C197.353226,73.139503 199.328796,69.597031 196.986511,65.154198 
	C194.623459,60.671967 190.583832,59.796913 185.967117,59.977398 
	C181.640503,60.146549 177.305725,60.107422 172.627609,60.324612 
	C172.410294,60.484447 172.277267,60.697044 172.176132,61.903072 
M13.173533,88.196617 
	C13.426019,88.987068 13.703581,89.770485 13.927338,90.568985 
	C20.235968,113.081879 34.418251,128.684174 56.172562,136.787460 
	C75.379128,143.941711 94.295082,142.521240 112.183708,131.920624 
	C131.965012,120.198456 143.324173,102.685143 145.809631,80.071754 
	C148.281036,57.586090 141.079941,38.077290 124.147018,22.703705 
	C106.634750,6.804142 85.870010,2.088308 63.136486,7.000689 
	C46.123833,10.676874 32.502155,19.974249 22.686975,34.710407 
	C11.871062,50.949028 8.971161,68.485458 13.173533,88.196617 
M177.010101,45.439171 
	C183.427292,50.985027 190.567551,53.352924 199.074295,51.075283 
	C208.615860,48.520580 207.254745,48.123737 206.785172,34.563351 
	C206.569260,28.328278 200.872147,31.988489 197.714111,31.033201 
	C197.262558,30.896614 196.587677,30.861916 196.249603,31.104883 
	C195.195969,31.862103 194.254456,32.775318 193.269485,33.628052 
	C194.154312,34.401833 195.023865,35.816593 195.926636,35.838123 
	C199.777588,35.929981 199.970459,38.264107 200.011383,41.213909 
	C200.058487,44.607689 197.854858,45.421047 195.289551,45.855637 
	C188.079681,47.077068 180.641937,41.009201 180.056107,33.514683 
	C179.424271,25.431702 185.103302,19.032322 193.012451,19.218376 
	C195.106812,19.267645 197.319275,19.886887 199.230515,20.775597 
	C201.869461,22.002680 204.066238,21.615108 204.862961,19.029718 
	C205.155838,18.079309 203.276062,15.783026 201.894394,15.104768 
	C194.040787,11.249460 182.299438,13.538582 177.156174,19.641802 
	C171.101929,26.826033 170.852570,36.559620 177.010101,45.439171 
M191.318481,106.165138 
	C188.388321,104.800476 184.853958,103.200623 183.189667,107.114937 
	C178.599579,117.910614 174.565689,128.942780 170.229218,140.093857 
	C174.398621,141.622070 177.281113,141.600052 178.493225,137.127228 
	C179.638840,132.899811 182.989334,132.764679 186.450714,133.039505 
	C190.002243,133.321503 194.456177,131.492432 195.945709,136.880615 
	C197.199615,141.416489 200.208893,141.727615 204.793716,140.145279 
	C200.409592,128.907211 196.091248,117.837723 191.318481,106.165138 
M232.037964,110.639603 
	C232.025391,109.309204 231.989426,107.978539 232.005188,106.648476 
	C232.037079,103.956039 231.214966,102.085899 228.055161,102.181168 
	C224.773468,102.280121 225.060379,104.681244 225.019089,106.821243 
	C224.962799,109.737633 225.005051,112.655914 225.005051,115.787117 
	C222.165649,115.462547 220.222183,115.106232 218.269073,115.041809 
	C211.922928,114.832527 208.618057,117.053307 206.006851,123.108345 
	C204.021484,127.712151 205.594910,135.143295 209.327118,138.789612 
	C213.027664,142.404999 217.234268,142.807449 223.122879,140.333237 
	C224.051880,139.942902 225.403229,140.002014 226.372192,140.359924 
	C230.315384,141.816391 231.912048,140.895859 231.971893,136.548828 
	C232.086349,128.234558 232.026611,119.917900 232.037964,110.639603 
M297.995453,82.502777 
	C299.331482,74.659081 291.687134,69.134567 284.671417,69.097176 
	C276.480804,69.053535 271.159485,74.356331 271.012634,82.273911 
	C270.849548,91.065643 274.756470,95.764435 282.413727,95.985886 
	C293.086578,96.294548 297.488403,92.730507 297.995453,82.502777 
M239.004715,50.795712 
	C243.674210,50.328575 248.360245,49.969479 252.992661,49.260159 
	C253.584320,49.169567 254.521744,46.939384 254.181458,46.260918 
	C253.745438,45.391598 252.201202,44.724682 251.089050,44.650352 
	C250.040649,44.580280 248.966537,45.540833 247.846344,45.790924 
	C242.051941,47.084595 238.979996,45.197830 238.094864,39.000751 
	C241.789734,39.000751 245.379608,39.212006 248.929169,38.924965 
	C251.217361,38.739933 255.274033,38.020409 255.362503,37.198616 
	C255.638275,34.636494 254.929810,31.615520 253.638092,29.313980 
	C251.243790,25.047831 245.861374,23.326416 241.077728,24.572737 
	C234.766571,26.217033 231.040939,29.882904 230.615219,36.291431 
	C230.217392,42.279819 231.333542,47.099403 239.004715,50.795712 
M260.076019,41.890572 
	C263.267395,52.034328 276.407410,55.055164 284.085083,47.364243 
	C282.912323,44.402905 281.074707,44.218861 278.163147,45.247566 
	C271.680481,47.537979 268.289734,45.756580 266.746124,38.972019 
	C271.518585,38.972019 276.094727,38.846867 280.660461,39.011185 
	C284.385071,39.145233 285.268280,37.215302 284.910553,34.024231 
	C284.278778,28.387655 277.477875,23.141962 271.884644,24.262453 
	C264.751556,25.691422 258.756744,28.466114 260.076019,41.890572 
M301.233185,117.591507 
	C293.175049,126.920494 296.699005,140.397202 309.049530,141.522095 
	C315.349487,142.095886 322.563599,137.647934 323.846344,131.722107 
	C325.447449,124.325226 322.285278,116.935616 315.793396,115.783630 
	C311.377258,115.000000 306.533875,116.624016 301.233185,117.591507 
M325.908966,92.977379 
	C325.926697,88.319321 326.140320,83.651894 325.918365,79.005287 
	C325.540710,71.099724 319.249786,67.295006 311.946655,70.136032 
	C310.487701,70.703583 308.601959,70.469864 306.968506,70.229088 
	C303.923126,69.780159 302.034088,70.551476 302.032715,73.966690 
	C302.030243,80.122437 301.869293,86.286453 302.176605,92.426895 
	C302.237335,93.640213 304.349182,95.857124 305.096680,95.693985 
	C306.544830,95.377914 308.594299,93.839890 308.795593,92.557320 
	C309.331329,89.143936 309.075226,85.596436 309.026337,82.103767 
	C308.973145,78.298882 310.275024,75.278206 314.422913,75.208389 
	C318.739746,75.135735 319.734375,78.582268 319.933655,82.107925 
	C320.121246,85.426147 319.855499,88.774010 320.124359,92.081596 
	C320.227203,93.346848 321.163391,95.476051 321.890137,95.550568 
	C323.121613,95.676834 324.488373,94.484154 325.908966,92.977379 
M214.350510,95.989746 
	C217.863235,96.198540 221.320312,93.490601 224.984863,95.799805 
	C225.243088,95.962524 227.733932,93.931969 227.779388,92.861542 
	C228.054642,86.379410 228.054886,79.874527 227.794922,73.391373 
	C227.750107,72.273651 226.019043,71.223557 225.066895,70.142212 
	C224.060730,71.335434 222.408646,72.418724 222.182983,73.744766 
	C221.714142,76.499695 222.060501,79.385338 221.964874,82.213623 
	C221.811661,86.744896 218.988358,90.706940 215.648010,90.436653 
	C211.129730,90.071037 210.622238,86.124687 210.150818,82.732025 
	C209.741547,79.786461 210.292389,76.700951 209.821167,73.773491 
	C209.608276,72.450859 207.944443,71.361778 206.938873,70.166740 
	C205.974030,71.413383 204.286179,72.600204 204.177170,73.917656 
	C203.821365,78.217880 203.873123,82.573784 204.079834,86.893364 
	C204.380493,93.176491 207.032288,95.603828 214.350510,95.989746 
M312.997620,42.135590 
	C312.991608,38.971745 313.073029,35.804806 312.961304,32.644699 
	C312.732330,26.169941 307.468842,22.633045 301.206696,24.395552 
	C298.988037,25.019999 296.548889,25.162512 294.231262,25.058819 
	C291.225891,24.924356 289.939819,26.033197 289.980713,29.046528 
	C290.062012,35.040031 289.846802,41.043285 290.138580,47.023754 
	C290.203033,48.344803 291.866364,49.587841 292.793457,50.866795 
	C293.850494,49.555626 295.624451,48.343441 295.821869,46.913586 
	C296.296204,43.478008 295.830048,39.923435 296.121918,36.448681 
	C296.403137,33.100929 297.672150,30.058498 301.758636,30.170929 
	C305.782837,30.281649 307.012665,33.039680 306.990540,36.652596 
	C306.971161,39.816196 307.128571,42.984776 307.001709,46.142876 
	C306.826080,50.515453 308.685577,51.887829 312.998657,50.413502 
	C312.998657,47.944313 312.998657,45.479446 312.997620,42.135590 
M277.026611,117.554810 
	C273.258820,122.950310 274.905090,127.701164 281.113525,129.884094 
	C283.519684,130.730118 285.751984,132.070557 288.512817,133.402542 
	C284.834625,137.376160 281.962769,136.056580 278.913544,135.106644 
	C277.730225,134.737991 276.173950,135.566559 274.787567,135.849762 
	C275.518311,137.212341 276.104736,139.633865 277.004456,139.756500 
	C281.181396,140.325775 285.560333,140.879684 289.624054,140.127213 
	C291.372253,139.803513 293.298889,136.471191 293.810455,134.204651 
	C295.204346,128.029037 290.416473,126.505669 285.917114,124.780785 
	C284.328369,124.171715 283.102142,122.617027 281.710388,121.494057 
	C283.526245,121.026031 285.328430,120.487778 287.165802,120.130302 
	C287.762207,120.014267 288.497131,120.590546 289.087128,120.465462 
	C290.249634,120.219032 291.355133,119.703560 292.484192,119.299362 
	C291.802429,118.159622 291.362549,116.340660 290.397339,115.996971 
	C286.071442,114.456642 281.664978,114.116173 277.026611,117.554810 
M257.481689,124.929398 
	C258.523010,121.916473 259.564331,118.903542 260.632721,115.812241 
	C255.844543,114.259720 253.753876,115.464882 252.754044,119.766403 
	C251.847672,123.665771 249.978333,127.341316 248.032349,132.424850 
	C246.822983,129.397324 246.160034,127.768639 245.520844,126.130684 
	C244.436813,123.352753 243.813568,120.247978 242.127533,117.906395 
	C241.093063,116.469704 238.440475,116.198128 236.514496,115.403358 
	C236.370987,116.998817 235.705032,118.771683 236.175949,120.158501 
	C238.039612,125.646851 240.017319,131.127838 242.475235,136.366409 
	C243.363464,138.259476 245.489197,140.212799 247.456223,140.817154 
	C250.897491,141.874466 251.748489,138.556473 252.787323,136.187881 
	C254.317856,132.698227 255.683060,129.136063 257.481689,124.929398 
M236.989471,91.218567 
	C238.274078,96.082413 241.994766,96.484375 245.976929,95.792969 
	C247.057587,95.605347 248.548706,94.158539 248.671341,93.146645 
	C248.782745,92.227341 247.427444,90.386368 246.480927,90.207054 
	C241.454590,89.254807 242.390518,85.248947 242.089401,82.025375 
	C241.814896,79.086792 242.262283,76.405624 246.161911,75.821327 
	C247.165771,75.670921 248.808975,73.784447 248.630646,73.085098 
	C248.325439,71.888214 246.879913,70.921722 245.792404,70.001266 
	C244.641724,69.027351 242.486359,68.390015 242.273849,67.309799 
	C241.481400,63.281364 239.098877,63.912212 237.766464,64.183182 
	C235.808914,66.865616 234.225006,68.417656 233.442413,70.302414 
	C232.806641,71.833603 232.567154,75.064880 233.122971,75.306267 
	C236.750137,76.881554 235.737183,79.888748 235.977463,82.552841 
	C236.213821,85.173019 236.503769,87.788361 236.989471,91.218567 
M262.045166,79.816216 
	C261.875122,77.024666 263.422272,76.154266 265.960724,75.830666 
	C266.967163,75.702362 268.239349,74.573051 268.622528,73.597763 
	C268.940430,72.788521 268.200195,70.648735 267.811676,70.618835 
	C264.084747,70.331863 261.789734,68.752632 261.111450,64.884628 
	C261.043732,64.498436 258.475372,63.894375 258.055756,64.334206 
	C255.583420,66.925461 253.283188,69.712639 251.247574,72.656868 
	C250.917206,73.134712 252.034683,75.519356 252.760544,75.668106 
	C256.290222,76.391518 255.846634,78.959686 256.013153,81.428307 
	C256.256256,85.032356 256.258392,88.721390 257.097229,92.197067 
	C257.924622,95.625412 263.776093,97.630165 266.438812,95.426140 
	C267.321594,94.695442 267.041412,90.748505 266.756592,90.685188 
	C260.728760,89.345428 262.230499,84.631401 262.045166,79.816216 
M328.421112,116.323570 
	C328.304108,123.297707 328.002258,130.278168 328.239899,137.240204 
	C328.282867,138.498871 330.540680,139.681946 331.775970,140.899902 
	C332.846893,139.586121 334.458191,138.416519 334.856567,136.923325 
	C335.395844,134.901993 335.095123,132.628174 334.994415,130.470169 
	C334.758423,125.411667 335.176910,120.991158 341.878204,120.676338 
	C342.595428,120.642632 343.686432,118.553123 343.711914,117.397621 
	C343.728363,116.651436 342.127350,115.226868 341.234467,115.213394 
	C337.137024,115.151581 333.033722,115.479828 328.421112,116.323570 
M223.062271,25.156446 
	C221.535629,25.303587 219.884247,25.896057 218.506851,25.510305 
	C215.048035,24.541630 212.960449,24.978308 212.995636,29.136612 
	C213.046295,35.124405 212.815109,41.124374 213.163895,47.092289 
	C213.241608,48.422024 215.230209,49.640079 216.339035,50.909557 
	C217.545990,49.658218 219.540710,48.549156 219.797729,47.126232 
	C220.351273,44.061413 220.127380,40.830742 220.006943,37.676147 
	C219.860580,33.843296 220.874680,31.328903 225.264069,30.703423 
	C226.308350,30.554613 227.003662,27.956768 227.859482,26.485392 
	C226.486298,25.990139 225.113098,25.494886 223.062271,25.156446 
M270.006683,132.402100 
	C270.006683,128.434708 270.092102,124.464767 269.973877,120.500900 
	C269.905243,118.199974 270.764587,115.122963 266.747437,115.148476 
	C262.722229,115.174034 263.072693,118.167816 263.038666,120.800064 
	C262.985291,124.932091 262.722107,129.094894 263.125824,133.187668 
	C263.399048,135.957443 260.842773,140.704788 266.433441,140.818695 
	C272.153748,140.935272 269.207458,136.070084 270.006683,132.402100 
M268.012726,104.259392 
	C266.481598,105.092667 264.950500,105.925949 263.419373,106.759224 
	C264.212555,108.060280 264.730774,109.892609 265.887482,110.491325 
	C266.784332,110.955536 269.539948,110.021919 269.616211,109.458702 
	C269.828247,107.892944 269.074280,106.196365 268.012726,104.259392 
z"/>
<path fill="#115D1F" opacity="1.000000" stroke="none" 
	d="
M13.075740,87.786079 
	C8.971161,68.485458 11.871062,50.949028 22.686975,34.710407 
	C32.502155,19.974249 46.123833,10.676874 63.136486,7.000689 
	C85.870010,2.088308 106.634750,6.804142 124.147018,22.703705 
	C141.079941,38.077290 148.281036,57.586090 145.809631,80.071754 
	C143.324173,102.685143 131.965012,120.198456 112.183708,131.920624 
	C94.295082,142.521240 75.379128,143.941711 56.172562,136.787460 
	C34.418251,128.684174 20.235968,113.081879 13.927338,90.568985 
	C13.703581,89.770485 13.426019,88.987068 13.075740,87.786079 
M82.762810,68.681519 
	C82.874557,68.812195 82.986298,68.942879 82.928452,69.754028 
	C81.144020,72.963219 79.359596,76.172409 77.470085,79.570587 
	C88.537155,81.609322 96.421631,66.612617 96.337608,53.077663 
	C94.213432,53.407516 92.133469,53.653683 90.085686,54.061474 
	C79.894608,56.090900 72.954643,64.018410 71.862465,74.099785 
	C71.548203,77.000656 69.865807,79.753311 68.294304,83.954330 
	C66.047264,80.195198 64.687019,77.919594 62.777359,74.724876 
	C65.188667,75.805237 66.431580,76.362106 67.692024,76.926834 
	C70.621933,69.311935 62.469280,61.745827 51.567455,61.849907 
	C52.826298,69.326149 53.961819,76.851326 61.029068,81.198013 
	C64.650497,83.425354 65.987930,86.229332 65.992867,90.129272 
	C65.998566,94.628021 65.888878,99.133614 66.118813,103.621399 
	C66.189896,105.008743 67.207397,106.347603 67.791580,107.708656 
	C68.526726,107.573471 69.261864,107.438278 69.997002,107.303093 
	C69.997002,103.592407 70.190384,99.869736 69.961082,96.173271 
	C69.246773,84.658318 73.712990,75.535553 82.762810,68.681519 
M40.083267,80.943756 
	C40.055050,78.279091 40.034931,75.614319 39.997284,72.949783 
	C39.762943,56.362190 47.956581,44.999279 62.202126,37.558651 
	C64.917068,36.140602 67.790634,34.702965 66.230721,31.450651 
	C64.646202,28.147043 61.344700,29.402042 58.794106,30.714804 
	C49.560665,35.467144 42.223396,42.326668 37.307251,51.482468 
	C28.557299,67.778328 29.685387,92.189552 47.894573,108.728195 
	C65.906746,125.087906 96.048897,124.573921 112.495560,106.485626 
	C123.163750,94.752586 127.583786,81.092651 124.737465,65.693710 
	C121.717781,49.356907 112.440102,37.301308 96.909813,30.568398 
	C94.672546,29.598467 91.949554,28.191128 90.539062,31.543619 
	C89.134125,34.882912 91.901230,36.070847 94.179878,37.597084 
	C98.819077,40.704422 104.023628,43.403347 107.683990,47.455124 
	C118.851456,59.816784 121.115868,74.434311 114.767174,89.616325 
	C108.482948,104.644180 96.275902,112.425797 80.042213,112.908386 
	C63.489899,113.400452 45.520634,103.538971 40.083267,80.943756 
M103.505669,66.407738 
	C103.012749,67.546661 102.104988,68.681046 102.092438,69.825233 
	C101.990776,79.098869 102.033890,88.374550 102.110420,97.648956 
	C102.117500,98.506134 102.662773,99.358871 103.240417,101.030586 
	C106.703438,97.053040 110.181534,94.136559 110.023575,88.857094 
	C109.855247,83.230850 109.867622,77.592285 110.026253,71.965446 
	C110.143723,67.798805 108.649834,65.613281 103.505669,66.407738 
M88.035225,87.687546 
	C88.035225,94.304626 88.035225,100.921700 88.035225,107.509430 
	C94.717781,107.598366 96.895912,105.777695 96.958771,100.445541 
	C97.021591,95.116631 96.897675,89.785446 96.966797,84.456703 
	C97.013626,80.846977 95.048935,79.880463 91.859444,80.072487 
	C87.110580,80.358376 88.299629,83.947243 88.035225,87.687546 
M74.013664,25.822294 
	C74.012268,30.152233 73.882515,34.487427 74.059525,38.810062 
	C74.159393,41.249111 74.390121,43.822582 75.304230,46.027786 
	C75.741692,47.083107 77.953972,48.003098 79.271027,47.892845 
	C80.228371,47.812702 81.763252,45.962261 81.793488,44.866703 
	C82.009285,37.047497 82.003578,29.216705 81.787071,21.397385 
	C81.757202,20.318741 80.243408,18.494614 79.299965,18.416021 
	C77.954796,18.303972 76.039886,19.134165 75.218948,20.210598 
	C74.317291,21.392864 74.380836,23.311243 74.013664,25.822294 
M75.137817,92.104134 
	C75.107605,96.588219 75.093025,101.072487 75.041420,105.556320 
	C75.009407,108.338760 76.077766,109.997154 79.123497,109.916580 
	C82.003273,109.840408 83.957397,108.840561 83.947304,105.575928 
	C83.935493,101.755295 84.216858,97.908264 83.838913,94.125862 
	C83.670242,92.437790 82.397514,89.712891 81.279839,89.525818 
	C79.434769,89.216995 77.309036,90.585014 75.137817,92.104134 
z"/>
<path fill="#115D1F" opacity="1.000000" stroke="none" 
	d="
M172.237778,87.053299 
	C172.217224,78.669891 172.196686,70.286484 172.332367,61.305443 
	C172.658981,60.532639 172.820969,60.350018 172.974548,60.159946 
	C177.305725,60.107422 181.640503,60.146549 185.967117,59.977398 
	C190.583832,59.796913 194.623459,60.671967 196.986511,65.154198 
	C199.328796,69.597031 197.353226,73.139503 194.020706,76.789146 
	C195.392624,77.937088 196.880112,78.808289 197.865921,80.071121 
	C202.186600,85.605957 199.532516,93.459114 191.923981,95.185349 
	C186.388153,96.441315 180.380829,95.665421 174.584274,95.643394 
	C174.087173,95.641510 173.594406,94.495201 173.022385,93.102509 
	C172.709366,90.567436 172.473572,88.810371 172.237778,87.053299 
M185.220688,90.949654 
	C186.321457,90.671684 187.474518,90.520485 188.513184,90.091995 
	C191.628464,88.806854 192.781326,86.209625 191.645721,83.270935 
	C190.135712,79.363388 186.392944,80.040924 183.144608,80.120628 
	C179.621231,80.207100 180.126907,82.907959 180.039902,85.146881 
	C179.919983,88.232941 179.785324,91.382835 185.220688,90.949654 
M180.037857,70.429306 
	C179.712265,73.874199 181.448914,75.819252 184.642960,74.762054 
	C186.948181,73.999062 188.764633,71.759399 190.799088,70.178337 
	C188.936417,68.471420 187.338577,66.001923 185.147400,65.241013 
	C182.062836,64.169861 179.627670,65.614891 180.037857,70.429306 
z"/>
<path fill="#115D1F" opacity="1.000000" stroke="none" 
	d="
M176.759674,45.166550 
	C170.852570,36.559620 171.101929,26.826033 177.156174,19.641802 
	C182.299438,13.538582 194.040787,11.249460 201.894394,15.104768 
	C203.276062,15.783026 205.155838,18.079309 204.862961,19.029718 
	C204.066238,21.615108 201.869461,22.002680 199.230515,20.775597 
	C197.319275,19.886887 195.106812,19.267645 193.012451,19.218376 
	C185.103302,19.032322 179.424271,25.431702 180.056107,33.514683 
	C180.641937,41.009201 188.079681,47.077068 195.289551,45.855637 
	C197.854858,45.421047 200.058487,44.607689 200.011383,41.213909 
	C199.970459,38.264107 199.777588,35.929981 195.926636,35.838123 
	C195.023865,35.816593 194.154312,34.401833 193.269485,33.628052 
	C194.254456,32.775318 195.195969,31.862103 196.249603,31.104883 
	C196.587677,30.861916 197.262558,30.896614 197.714111,31.033201 
	C200.872147,31.988489 206.569260,28.328278 206.785172,34.563351 
	C207.254745,48.123737 208.615860,48.520580 199.074295,51.075283 
	C190.567551,53.352924 183.427292,50.985027 176.759674,45.166550 
z"/>
<path fill="#115D1F" opacity="1.000000" stroke="none" 
	d="
M191.545685,106.466690 
	C196.091248,117.837723 200.409592,128.907211 204.793716,140.145279 
	C200.208893,141.727615 197.199615,141.416489 195.945709,136.880615 
	C194.456177,131.492432 190.002243,133.321503 186.450714,133.039505 
	C182.989334,132.764679 179.638840,132.899811 178.493225,137.127228 
	C177.281113,141.600052 174.398621,141.622070 170.229218,140.093857 
	C174.565689,128.942780 178.599579,117.910614 183.189667,107.114937 
	C184.853958,103.200623 188.388321,104.800476 191.545685,106.466690 
M185.694611,117.665237 
	C185.102325,119.208000 184.585266,120.784973 183.902267,122.286476 
	C182.427750,125.528137 183.483521,127.068504 186.968964,126.918396 
	C188.503616,126.852295 190.026825,126.521011 191.970444,126.252838 
	C190.741394,122.603546 189.927429,119.580345 188.695618,116.738251 
	C187.846756,114.779663 186.598175,114.631691 185.694611,117.665237 
z"/>
<path fill="#115E1F" opacity="1.000000" stroke="none" 
	d="
M232.038574,111.120918 
	C232.026611,119.917900 232.086349,128.234558 231.971893,136.548828 
	C231.912048,140.895859 230.315384,141.816391 226.372192,140.359924 
	C225.403229,140.002014 224.051880,139.942902 223.122879,140.333237 
	C217.234268,142.807449 213.027664,142.404999 209.327118,138.789612 
	C205.594910,135.143295 204.021484,127.712151 206.006851,123.108345 
	C208.618057,117.053307 211.922928,114.832527 218.269073,115.041809 
	C220.222183,115.106232 222.165649,115.462547 225.005051,115.787117 
	C225.005051,112.655914 224.962799,109.737633 225.019089,106.821243 
	C225.060379,104.681244 224.773468,102.280121 228.055161,102.181168 
	C231.214966,102.085899 232.037079,103.956039 232.005188,106.648476 
	C231.989426,107.978539 232.025391,109.309204 232.038574,111.120918 
M224.964355,130.106476 
	C224.912338,128.455673 225.125931,126.741943 224.752899,125.167168 
	C223.980515,121.906364 221.786163,119.737541 218.356171,120.283943 
	C214.266251,120.935478 212.224655,123.846695 212.011063,127.987267 
	C211.809204,131.900421 213.240707,135.034348 217.195160,135.914230 
	C221.090652,136.780991 223.795334,134.835861 224.964355,130.106476 
z"/>
<path fill="#115D1F" opacity="1.000000" stroke="none" 
	d="
M297.994812,82.936768 
	C297.488403,92.730507 293.086578,96.294548 282.413727,95.985886 
	C274.756470,95.764435 270.849548,91.065643 271.012634,82.273911 
	C271.159485,74.356331 276.480804,69.053535 284.671417,69.097176 
	C291.687134,69.134567 299.331482,74.659081 297.994812,82.936768 
M280.184174,76.536079 
	C275.554779,81.897949 276.784882,89.301430 282.560852,90.394669 
	C286.053711,91.055763 289.651489,90.554558 290.601624,86.630005 
	C291.259155,83.914238 291.278351,80.339989 289.998169,78.026001 
	C288.134521,74.657402 284.449463,74.157776 280.184174,76.536079 
z"/>
<path fill="#115D1F" opacity="1.000000" stroke="none" 
	d="
M238.638702,50.672150 
	C231.333542,47.099403 230.217392,42.279819 230.615219,36.291431 
	C231.040939,29.882904 234.766571,26.217033 241.077728,24.572737 
	C245.861374,23.326416 251.243790,25.047831 253.638092,29.313980 
	C254.929810,31.615520 255.638275,34.636494 255.362503,37.198616 
	C255.274033,38.020409 251.217361,38.739933 248.929169,38.924965 
	C245.379608,39.212006 241.789734,39.000751 238.094864,39.000751 
	C238.979996,45.197830 242.051941,47.084595 247.846344,45.790924 
	C248.966537,45.540833 250.040649,44.580280 251.089050,44.650352 
	C252.201202,44.724682 253.745438,45.391598 254.181458,46.260918 
	C254.521744,46.939384 253.584320,49.169567 252.992661,49.260159 
	C248.360245,49.969479 243.674210,50.328575 238.638702,50.672150 
M246.583908,30.471714 
	C243.233551,29.881033 239.733139,28.931217 238.064346,34.839619 
	C241.291473,34.839619 244.025345,35.188076 246.626114,34.748680 
	C249.665237,34.235222 248.653183,32.472588 246.583908,30.471714 
z"/>
<path fill="#115D1F" opacity="1.000000" stroke="none" 
	d="
M260.054443,41.460762 
	C258.756744,28.466114 264.751556,25.691422 271.884644,24.262453 
	C277.477875,23.141962 284.278778,28.387655 284.910553,34.024231 
	C285.268280,37.215302 284.385071,39.145233 280.660461,39.011185 
	C276.094727,38.846867 271.518585,38.972019 266.746124,38.972019 
	C268.289734,45.756580 271.680481,47.537979 278.163147,45.247566 
	C281.074707,44.218861 282.912323,44.402905 284.085083,47.364243 
	C276.407410,55.055164 263.267395,52.034328 260.054443,41.460762 
M268.781982,30.970890 
	C268.269836,32.067856 267.757660,33.164822 267.154083,34.457542 
	C271.146454,34.457542 274.608337,34.457542 278.544739,34.457542 
	C276.422852,29.485004 273.411255,28.587841 268.781982,30.970890 
z"/>
<path fill="#115D1F" opacity="1.000000" stroke="none" 
	d="
M301.557373,117.381454 
	C306.533875,116.624016 311.377258,115.000000 315.793396,115.783630 
	C322.285278,116.935616 325.447449,124.325226 323.846344,131.722107 
	C322.563599,137.647934 315.349487,142.095886 309.049530,141.522095 
	C296.699005,140.397202 293.175049,126.920494 301.557373,117.381454 
M304.994904,123.620834 
	C302.323914,128.471558 302.713562,132.107101 306.322998,134.506439 
	C309.691437,136.745529 312.988342,136.374161 315.777069,133.502838 
	C318.593567,130.602875 318.433289,124.876541 315.485107,122.182953 
	C311.924561,118.929848 308.571075,119.827721 304.994904,123.620834 
z"/>
<path fill="#125E20" opacity="1.000000" stroke="none" 
	d="
M325.853607,93.411644 
	C324.488373,94.484154 323.121613,95.676834 321.890137,95.550568 
	C321.163391,95.476051 320.227203,93.346848 320.124359,92.081596 
	C319.855499,88.774010 320.121246,85.426147 319.933655,82.107925 
	C319.734375,78.582268 318.739746,75.135735 314.422913,75.208389 
	C310.275024,75.278206 308.973145,78.298882 309.026337,82.103767 
	C309.075226,85.596436 309.331329,89.143936 308.795593,92.557320 
	C308.594299,93.839890 306.544830,95.377914 305.096680,95.693985 
	C304.349182,95.857124 302.237335,93.640213 302.176605,92.426895 
	C301.869293,86.286453 302.030243,80.122437 302.032715,73.966690 
	C302.034088,70.551476 303.923126,69.780159 306.968506,70.229088 
	C308.601959,70.469864 310.487701,70.703583 311.946655,70.136032 
	C319.249786,67.295006 325.540710,71.099724 325.918365,79.005287 
	C326.140320,83.651894 325.926697,88.319321 325.853607,93.411644 
z"/>
<path fill="#115D1F" opacity="1.000000" stroke="none" 
	d="
M213.934631,95.989029 
	C207.032288,95.603828 204.380493,93.176491 204.079834,86.893364 
	C203.873123,82.573784 203.821365,78.217880 204.177170,73.917656 
	C204.286179,72.600204 205.974030,71.413383 206.938873,70.166733 
	C207.944443,71.361778 209.608276,72.450859 209.821167,73.773491 
	C210.292389,76.700951 209.741547,79.786461 210.150818,82.732025 
	C210.622238,86.124687 211.129730,90.071037 215.648010,90.436653 
	C218.988358,90.706940 221.811661,86.744896 221.964874,82.213623 
	C222.060501,79.385338 221.714142,76.499695 222.182983,73.744766 
	C222.408646,72.418724 224.060730,71.335434 225.066895,70.142220 
	C226.019043,71.223557 227.750107,72.273651 227.794922,73.391373 
	C228.054886,79.874527 228.054642,86.379410 227.779388,92.861542 
	C227.733932,93.931969 225.243088,95.962524 224.984863,95.799805 
	C221.320312,93.490601 217.863235,96.198540 213.934631,95.989029 
z"/>
<path fill="#115E20" opacity="1.000000" stroke="none" 
	d="
M312.998138,42.575085 
	C312.998657,45.479446 312.998657,47.944313 312.998657,50.413502 
	C308.685577,51.887829 306.826080,50.515453 307.001709,46.142876 
	C307.128571,42.984776 306.971161,39.816196 306.990540,36.652596 
	C307.012665,33.039680 305.782837,30.281649 301.758636,30.170929 
	C297.672150,30.058498 296.403137,33.100929 296.121918,36.448681 
	C295.830048,39.923435 296.296204,43.478008 295.821869,46.913586 
	C295.624451,48.343441 293.850494,49.555626 292.793457,50.866798 
	C291.866364,49.587841 290.203033,48.344803 290.138580,47.023754 
	C289.846802,41.043285 290.062012,35.040031 289.980713,29.046528 
	C289.939819,26.033197 291.225891,24.924356 294.231262,25.058819 
	C296.548889,25.162512 298.988037,25.019999 301.206696,24.395552 
	C307.468842,22.633045 312.732330,26.169941 312.961304,32.644699 
	C313.073029,35.804806 312.991608,38.971745 312.998138,42.575085 
z"/>
<path fill="#115D1F" opacity="1.000000" stroke="none" 
	d="
M277.319336,117.284286 
	C281.664978,114.116173 286.071442,114.456642 290.397339,115.996971 
	C291.362549,116.340660 291.802429,118.159622 292.484192,119.299362 
	C291.355133,119.703560 290.249634,120.219032 289.087128,120.465462 
	C288.497131,120.590546 287.762207,120.014267 287.165802,120.130302 
	C285.328430,120.487778 283.526245,121.026031 281.710388,121.494064 
	C283.102142,122.617027 284.328369,124.171715 285.917114,124.780785 
	C290.416473,126.505669 295.204346,128.029037 293.810455,134.204651 
	C293.298889,136.471191 291.372253,139.803513 289.624054,140.127213 
	C285.560333,140.879684 281.181396,140.325775 277.004456,139.756500 
	C276.104736,139.633865 275.518311,137.212341 274.787567,135.849762 
	C276.173950,135.566559 277.730225,134.737991 278.913544,135.106644 
	C281.962769,136.056580 284.834625,137.376160 288.512817,133.402542 
	C285.751984,132.070557 283.519684,130.730118 281.113525,129.884094 
	C274.905090,127.701164 273.258820,122.950310 277.319336,117.284286 
z"/>
<path fill="#115D1F" opacity="1.000000" stroke="none" 
	d="
M257.300171,125.267090 
	C255.683060,129.136063 254.317856,132.698227 252.787323,136.187881 
	C251.748489,138.556473 250.897491,141.874466 247.456223,140.817154 
	C245.489197,140.212799 243.363464,138.259476 242.475235,136.366409 
	C240.017319,131.127838 238.039612,125.646851 236.175949,120.158501 
	C235.705032,118.771683 236.370987,116.998817 236.514496,115.403358 
	C238.440475,116.198128 241.093063,116.469704 242.127533,117.906395 
	C243.813568,120.247978 244.436813,123.352753 245.520844,126.130684 
	C246.160034,127.768639 246.822983,129.397324 248.032349,132.424850 
	C249.978333,127.341316 251.847672,123.665771 252.754044,119.766403 
	C253.753876,115.464882 255.844543,114.259720 260.632721,115.812241 
	C259.564331,118.903542 258.523010,121.916473 257.300171,125.267090 
z"/>
<path fill="#115D1F" opacity="1.000000" stroke="none" 
	d="
M236.879822,90.812195 
	C236.503769,87.788361 236.213821,85.173019 235.977463,82.552841 
	C235.737183,79.888748 236.750137,76.881554 233.122971,75.306267 
	C232.567154,75.064880 232.806641,71.833603 233.442413,70.302414 
	C234.225006,68.417656 235.808914,66.865616 237.766464,64.183182 
	C239.098877,63.912212 241.481400,63.281364 242.273849,67.309799 
	C242.486359,68.390015 244.641724,69.027351 245.792404,70.001266 
	C246.879913,70.921722 248.325439,71.888214 248.630646,73.085098 
	C248.808975,73.784447 247.165771,75.670921 246.161911,75.821327 
	C242.262283,76.405624 241.814896,79.086792 242.089401,82.025375 
	C242.390518,85.248947 241.454590,89.254807 246.480927,90.207054 
	C247.427444,90.386368 248.782745,92.227341 248.671341,93.146645 
	C248.548706,94.158539 247.057587,95.605347 245.976929,95.792969 
	C241.994766,96.484375 238.274078,96.082413 236.879822,90.812195 
z"/>
<path fill="#115D1F" opacity="1.000000" stroke="none" 
	d="
M262.032837,80.255234 
	C262.230499,84.631401 260.728760,89.345428 266.756592,90.685188 
	C267.041412,90.748505 267.321594,94.695442 266.438812,95.426140 
	C263.776093,97.630165 257.924622,95.625412 257.097229,92.197067 
	C256.258392,88.721390 256.256256,85.032356 256.013153,81.428307 
	C255.846634,78.959686 256.290222,76.391518 252.760544,75.668106 
	C252.034683,75.519356 250.917206,73.134712 251.247574,72.656868 
	C253.283188,69.712639 255.583420,66.925461 258.055756,64.334206 
	C258.475372,63.894375 261.043732,64.498436 261.111450,64.884628 
	C261.789734,68.752632 264.084747,70.331863 267.811676,70.618835 
	C268.200195,70.648735 268.940430,72.788521 268.622528,73.597763 
	C268.239349,74.573051 266.967163,75.702362 265.960724,75.830666 
	C263.422272,76.154266 261.875122,77.024666 262.032837,80.255234 
z"/>
<path fill="#125E20" opacity="1.000000" stroke="none" 
	d="
M328.676819,115.995819 
	C333.033722,115.479828 337.137024,115.151581 341.234467,115.213394 
	C342.127350,115.226868 343.728363,116.651436 343.711914,117.397621 
	C343.686432,118.553123 342.595428,120.642632 341.878204,120.676338 
	C335.176910,120.991158 334.758423,125.411667 334.994415,130.470169 
	C335.095123,132.628174 335.395844,134.901993 334.856567,136.923325 
	C334.458191,138.416519 332.846893,139.586121 331.775970,140.899902 
	C330.540680,139.681946 328.282867,138.498871 328.239899,137.240204 
	C328.002258,130.278168 328.304108,123.297707 328.676819,115.995819 
z"/>
<path fill="#125E20" opacity="1.000000" stroke="none" 
	d="
M223.401093,25.078041 
	C225.113098,25.494886 226.486298,25.990139 227.859482,26.485392 
	C227.003662,27.956768 226.308350,30.554613 225.264069,30.703423 
	C220.874680,31.328903 219.860580,33.843296 220.006943,37.676147 
	C220.127380,40.830742 220.351273,44.061413 219.797729,47.126232 
	C219.540710,48.549156 217.545990,49.658218 216.339020,50.909554 
	C215.230209,49.640079 213.241608,48.422024 213.163895,47.092289 
	C212.815109,41.124374 213.046295,35.124405 212.995636,29.136612 
	C212.960449,24.978308 215.048035,24.541630 218.506851,25.510305 
	C219.884247,25.896057 221.535629,25.303587 223.401093,25.078041 
z"/>
<path fill="#115D1F" opacity="1.000000" stroke="none" 
	d="
M270.006500,132.882385 
	C269.207458,136.070084 272.153748,140.935272 266.433441,140.818695 
	C260.842773,140.704788 263.399048,135.957443 263.125824,133.187668 
	C262.722107,129.094894 262.985291,124.932091 263.038666,120.800064 
	C263.072693,118.167816 262.722229,115.174034 266.747437,115.148476 
	C270.764587,115.122963 269.905243,118.199974 269.973877,120.500900 
	C270.092102,124.464767 270.006683,128.434708 270.006500,132.882385 
z"/>
<path fill="#115D1F" opacity="1.000000" stroke="none" 
	d="
M268.357300,104.405426 
	C269.074280,106.196365 269.828247,107.892944 269.616211,109.458702 
	C269.539948,110.021919 266.784332,110.955536 265.887482,110.491325 
	C264.730774,109.892609 264.212555,108.060280 263.419373,106.759232 
	C264.950500,105.925949 266.481598,105.092667 268.357300,104.405426 
z"/>
<path fill="#094E11" opacity="1.000000" stroke="none" 
	d="
M172.186401,87.442627 
	C172.473572,88.810371 172.709366,90.567436 172.939331,92.716171 
	C172.667358,91.349205 172.401184,89.590584 172.186401,87.442627 
z"/>
<path fill="#094E11" opacity="1.000000" stroke="none" 
	d="
M172.801086,60.242279 
	C172.820969,60.350018 172.658981,60.532639 172.358566,60.835106 
	C172.277267,60.697044 172.410294,60.484447 172.801086,60.242279 
z"/>
<path fill="#000000" opacity="1.000000" stroke="none" 
	d="
M40.132553,81.380707 
	C45.520634,103.538971 63.489899,113.400452 80.042213,112.908386 
	C96.275902,112.425797 108.482948,104.644180 114.767174,89.616325 
	C121.115868,74.434311 118.851456,59.816784 107.683990,47.455124 
	C104.023628,43.403347 98.819077,40.704422 94.179878,37.597084 
	C91.901230,36.070847 89.134125,34.882912 90.539062,31.543619 
	C91.949554,28.191128 94.672546,29.598467 96.909813,30.568398 
	C112.440102,37.301308 121.717781,49.356907 124.737465,65.693710 
	C127.583786,81.092651 123.163750,94.752586 112.495560,106.485626 
	C96.048897,124.573921 65.906746,125.087906 47.894573,108.728195 
	C29.685387,92.189552 28.557299,67.778328 37.307251,51.482468 
	C42.223396,42.326668 49.560665,35.467144 58.794106,30.714804 
	C61.344700,29.402042 64.646202,28.147043 66.230721,31.450651 
	C67.790634,34.702965 64.917068,36.140602 62.202126,37.558651 
	C47.956581,44.999279 39.762943,56.362190 39.997284,72.949783 
	C40.034931,75.614319 40.055050,78.279091 40.132553,81.380707 
z"/>
<path fill="#000000" opacity="1.000000" stroke="none" 
	d="
M82.437866,68.280899 
	C73.712990,75.535553 69.246773,84.658318 69.961082,96.173271 
	C70.190384,99.869736 69.997002,103.592407 69.997002,107.303093 
	C69.261864,107.438278 68.526726,107.573471 67.791580,107.708656 
	C67.207397,106.347603 66.189896,105.008743 66.118813,103.621399 
	C65.888878,99.133614 65.998566,94.628021 65.992867,90.129272 
	C65.987930,86.229332 64.650497,83.425354 61.029068,81.198013 
	C53.961819,76.851326 52.826298,69.326149 51.567455,61.849907 
	C62.469280,61.745827 70.621933,69.311935 67.692024,76.926834 
	C66.431580,76.362106 65.188667,75.805237 62.777359,74.724876 
	C64.687019,77.919594 66.047264,80.195198 68.294304,83.954330 
	C69.865807,79.753311 71.548203,77.000656 71.862465,74.099785 
	C72.954643,64.018410 79.894608,56.090900 90.085686,54.061474 
	C92.133469,53.653683 94.213432,53.407516 96.337608,53.077663 
	C96.421631,66.612617 88.537155,81.609322 77.470085,79.570587 
	C79.359596,76.172409 81.144020,72.963219 83.160469,69.305664 
	C83.437187,68.608536 83.481888,68.359772 83.526581,68.111008 
	C83.163673,68.167633 82.800774,68.224266 82.437866,68.280899 
z"/>
<path fill="#000000" opacity="1.000000" stroke="none" 
	d="
M103.863441,66.302048 
	C108.649834,65.613281 110.143723,67.798805 110.026253,71.965446 
	C109.867622,77.592285 109.855247,83.230850 110.023575,88.857094 
	C110.181534,94.136559 106.703438,97.053040 103.240417,101.030586 
	C102.662773,99.358871 102.117500,98.506134 102.110420,97.648956 
	C102.033890,88.374550 101.990776,79.098869 102.092438,69.825233 
	C102.104988,68.681046 103.012749,67.546661 103.863441,66.302048 
z"/>
<path fill="#000000" opacity="1.000000" stroke="none" 
	d="
M88.036255,87.217758 
	C88.299629,83.947243 87.110580,80.358376 91.859444,80.072487 
	C95.048935,79.880463 97.013626,80.846977 96.966797,84.456703 
	C96.897675,89.785446 97.021591,95.116631 96.958771,100.445541 
	C96.895912,105.777695 94.717781,107.598366 88.035225,107.509430 
	C88.035225,100.921700 88.035225,94.304626 88.036255,87.217758 
z"/>
<path fill="#000000" opacity="1.000000" stroke="none" 
	d="
M74.018738,25.365589 
	C74.380836,23.311243 74.317291,21.392864 75.218948,20.210598 
	C76.039886,19.134165 77.954796,18.303972 79.299965,18.416021 
	C80.243408,18.494614 81.757202,20.318741 81.787071,21.397385 
	C82.003578,29.216705 82.009285,37.047497 81.793488,44.866703 
	C81.763252,45.962261 80.228371,47.812702 79.271027,47.892845 
	C77.953972,48.003098 75.741692,47.083107 75.304230,46.027786 
	C74.390121,43.822582 74.159393,41.249111 74.059525,38.810062 
	C73.882515,34.487427 74.012268,30.152233 74.018738,25.365589 
z"/>
<path fill="#000000" opacity="1.000000" stroke="none" 
	d="
M75.219696,91.675232 
	C77.309036,90.585014 79.434769,89.216995 81.279839,89.525818 
	C82.397514,89.712891 83.670242,92.437790 83.838913,94.125862 
	C84.216858,97.908264 83.935493,101.755295 83.947304,105.575928 
	C83.957397,108.840561 82.003273,109.840408 79.123497,109.916580 
	C76.077766,109.997154 75.009407,108.338760 75.041420,105.556320 
	C75.093025,101.072487 75.107605,96.588219 75.219696,91.675232 
z"/>
<path fill="#000000" opacity="1.000000" stroke="none" 
	d="
M184.804108,90.954628 
	C179.785324,91.382835 179.919983,88.232941 180.039902,85.146881 
	C180.126907,82.907959 179.621231,80.207100 183.144608,80.120628 
	C186.392944,80.040924 190.135712,79.363388 191.645721,83.270935 
	C192.781326,86.209625 191.628464,88.806854 188.513184,90.091995 
	C187.474518,90.520485 186.321457,90.671684 184.804108,90.954628 
z"/>
<path fill="#000000" opacity="1.000000" stroke="none" 
	d="
M180.038467,69.998238 
	C179.627670,65.614891 182.062836,64.169861 185.147400,65.241013 
	C187.338577,66.001923 188.936417,68.471420 190.799088,70.178337 
	C188.764633,71.759399 186.948181,73.999062 184.642960,74.762054 
	C181.448914,75.819252 179.712265,73.874199 180.038467,69.998238 
z"/>
<path fill="#000000" opacity="1.000000" stroke="none" 
	d="
M185.804321,117.351486 
	C186.598175,114.631691 187.846756,114.779663 188.695618,116.738251 
	C189.927429,119.580345 190.741394,122.603546 191.970444,126.252838 
	C190.026825,126.521011 188.503616,126.852295 186.968964,126.918396 
	C183.483521,127.068504 182.427750,125.528137 183.902267,122.286476 
	C184.585266,120.784973 185.102325,119.208000 185.804321,117.351486 
z"/>
<path fill="#000000" opacity="1.000000" stroke="none" 
	d="
M224.940475,130.512848 
	C223.795334,134.835861 221.090652,136.780991 217.195160,135.914230 
	C213.240707,135.034348 211.809204,131.900421 212.011063,127.987267 
	C212.224655,123.846695 214.266251,120.935478 218.356171,120.283943 
	C221.786163,119.737541 223.980515,121.906364 224.752899,125.167168 
	C225.125931,126.741943 224.912338,128.455673 224.940475,130.512848 
z"/>
<path fill="#000000" opacity="1.000000" stroke="none" 
	d="
M280.511475,76.332298 
	C284.449463,74.157776 288.134521,74.657402 289.998169,78.026001 
	C291.278351,80.339989 291.259155,83.914238 290.601624,86.630005 
	C289.651489,90.554558 286.053711,91.055763 282.560852,90.394669 
	C276.784882,89.301430 275.554779,81.897949 280.511475,76.332298 
z"/>
<path fill="#000000" opacity="1.000000" stroke="none" 
	d="
M246.891235,30.704744 
	C248.653183,32.472588 249.665237,34.235222 246.626114,34.748680 
	C244.025345,35.188076 241.291473,34.839619 238.064346,34.839619 
	C239.733139,28.931217 243.233551,29.881033 246.891235,30.704744 
z"/>
<path fill="#000000" opacity="1.000000" stroke="none" 
	d="
M269.039612,30.744892 
	C273.411255,28.587841 276.422852,29.485004 278.544739,34.457542 
	C274.608337,34.457542 271.146454,34.457542 267.154083,34.457542 
	C267.757660,33.164822 268.269836,32.067856 269.039612,30.744892 
z"/>
<path fill="#000000" opacity="1.000000" stroke="none" 
	d="
M305.247253,123.340797 
	C308.571075,119.827721 311.924561,118.929848 315.485107,122.182953 
	C318.433289,124.876541 318.593567,130.602875 315.777069,133.502838 
	C312.988342,136.374161 309.691437,136.745529 306.322998,134.506439 
	C302.713562,132.107101 302.323914,128.471558 305.247253,123.340797 
z"/>
<path fill="#115D1F" opacity="1.000000" stroke="none" 
	d="
M82.600342,68.481209 
	C82.800774,68.224266 83.163673,68.167633 83.526581,68.111008 
	C83.481888,68.359772 83.437187,68.608536 83.245270,68.965439 
	C82.986298,68.942879 82.874557,68.812195 82.600342,68.481209 
z"/>
</svg>