<?xml version="1.0" encoding="UTF-8" standalone="no"?>
<svg
   version="1.1"
   id="Layer_1"
   x="0px"
   y="0px"
   width="358.61661"
   viewBox="0 0 358.61661 360.00778"
   enable-background="new 0 0 1024 1024"
   xml:space="preserve"
   sodipodi:docname="Logo.svg"
   height="360.00778"
   inkscape:version="1.4.1 (93de688d07, 2025-03-30)"
   xmlns:inkscape="http://www.inkscape.org/namespaces/inkscape"
   xmlns:sodipodi="http://sodipodi.sourceforge.net/DTD/sodipodi-0.dtd"
   xmlns="http://www.w3.org/2000/svg"
   xmlns:svg="http://www.w3.org/2000/svg"><defs
   id="defs20" /><sodipodi:namedview
   id="namedview20"
   pagecolor="#505050"
   bordercolor="#eeeeee"
   borderopacity="1"
   inkscape:showpageshadow="0"
   inkscape:pageopacity="0"
   inkscape:pagecheckerboard="0"
   inkscape:deskcolor="#505050"
   inkscape:zoom="1.9599609"
   inkscape:cx="429.09018"
   inkscape:cy="194.64674"
   inkscape:window-width="3840"
   inkscape:window-height="2355"
   inkscape:window-x="2160"
   inkscape:window-y="1440"
   inkscape:window-maximized="1"
   inkscape:current-layer="layer1" />
<g
   inkscape:groupmode="layer"
   id="layer1"
   inkscape:label="Shadow"
   transform="translate(-82.937217,-317.36871)"><path
     fill="#000000"
     opacity="1"
     stroke="none"
     d="m 89.534042,537.50318 c -18.37654,-80.89215 19.368778,-163.47004 94.892278,-199.7403 24.94249,-11.97864 51.23157,-17.84723 78.70977,-17.29529 83.00823,1.66748 153.51339,58.29538 170.61837,142.22065 16.26438,79.8009 -24.48843,160.73437 -97.27945,197.17639 -28.65341,14.34503 -59.04938,19.78436 -90.60377,16.6582 -77.61283,-7.68921 -138.34547,-65.52826 -155.848078,-137.16772 -0.11842,-0.48462 -0.27985,-0.95887 -0.48911,-1.85193 M 361.24897,480.76804 c 2.7789,12.85818 2.76132,25.83151 0.61963,38.69903 -9.77066,58.70359 -67.93064,96.4473 -125.57505,81.21726 -53.8877,-14.23743 -84.50718,-64.90247 -76.53622,-116.41949 5.31918,-34.37852 23.77435,-60.20792 54.56096,-76.89051 3.36526,-1.82358 6.9266,-3.30347 10.20708,-5.26102 4.53564,-2.70663 6.01762,-8.04257 3.80865,-12.5881 -2.26305,-4.65683 -6.42143,-6.35333 -11.66064,-4.40121 -3.73558,1.39184 -7.43055,2.98403 -10.94934,4.85266 -49.23159,26.14416 -75.16927,81.55087 -63.52352,136.10293 13.2567,62.09802 73.18491,105.71204 136.96724,96.26862 56.91104,-8.42597 99.52777,-55.82501 103.12933,-113.29224 2.04084,-32.56393 -7.74163,-61.80063 -28.43563,-87.14017 -13.77024,-16.86148 -30.84562,-29.25396 -51.36191,-36.80569 -3.94965,-1.45383 -7.13275,-0.77502 -9.82871,2.41882 -4.87686,5.7775 -2.2507,12.89942 5.94431,16.53138 33.49286,14.84378 54.65869,39.88086 62.63382,76.70773 m -118.9308,16.58209 c 2.39718,11.57944 -4.081,20.36212 -8.95865,30.69937 -8.07263,-12.75497 -15.51708,-24.51736 -22.9615,-36.27975 0.3999,-0.28983 0.79982,-0.57965 1.19973,-0.86948 7.20195,5.95276 12.74103,13.66117 19.84778,20.38568 1.98444,-2.64297 2.80475,-4.87015 2.99723,-7.42233 0.58712,-7.78491 -2.01836,-14.42398 -7.27851,-20.03458 -7.09524,-7.56796 -16.24637,-11.46167 -26.05453,-13.94201 -3.58405,-0.90637 -7.1325,-2.79242 -11.79456,-1.50644 4.11273,15.28088 6.64726,30.79611 16.09406,43.83127 3.08169,4.25228 7.19734,7.67807 12.22259,9.14593 4.2385,1.23804 6.29373,3.96814 7.85025,7.5799 1.66135,3.85492 2.6667,7.83313 2.65196,12.08404 -0.0479,13.82898 -0.0165,27.65833 0.001,41.48749 0.008,6.32666 1.22544,7.427 8.43973,7.31677 0,-12.7901 0.33788,-25.60302 -0.0809,-38.39129 -0.59633,-18.21113 8.04892,-33.13373 17.12913,-47.56171 6.72132,-10.67969 16.39011,-19.23929 25.50742,-28.03836 0.8829,-0.85208 1.60175,-2.21552 4.13287,-1.48453 -8.95251,14.38324 -18.84097,27.93192 -27.23462,43.68387 14.0178,-0.66183 24.71125,-5.20371 32.71726,-15.0134 13.33783,-16.34265 16.06241,-36.37051 19.41409,-55.92843 -1.69525,-1.36249 -2.98031,-0.83829 -4.28277,-0.63874 -6.26697,0.96033 -12.452,2.41605 -18.3675,4.58725 -21.81518,8.00699 -39.82191,19.7814 -43.19166,46.30948 m 92.59251,62.76218 c 5.09082,-5.56592 6.95184,-11.94116 6.6879,-19.61475 -0.52078,-15.13837 -0.19486,-30.30749 -0.13812,-45.46359 0.0537,-14.35284 0.62371,-13.22977 -13.32218,-13.19202 -6.61773,0.0179 -7.12262,0.51468 -7.12781,7.13831 -0.0197,25.14944 -0.0126,50.29892 -0.007,75.44833 2.5e-4,1.16443 -0.0413,2.34937 0.14871,3.48938 0.53833,3.23041 2.32761,4.14051 4.76478,1.8302 3.01113,-2.85443 5.69204,-6.05713 8.99386,-9.63586 M 250.10387,400.99448 c 0.006,7.8197 -0.0865,15.64117 0.0516,23.45856 0.10436,5.91018 3.95676,9.61682 9.70969,9.71075 6.26309,0.10224 10.44763,-3.33624 10.49505,-9.4267 0.15677,-20.13025 0.18888,-40.26397 -0.0294,-60.39315 -0.0713,-6.58057 -4.09833,-9.75876 -10.77924,-9.57343 -6.25058,0.1734 -9.40349,3.53937 -9.43217,10.28473 -0.0495,11.64621 -0.0145,23.29279 -0.0155,35.93924 m 57.34328,177.50894 c -9.2e-4,-17.78259 -0.10315,-35.56622 0.0661,-53.34717 0.0441,-4.63537 -1.41232,-6.88077 -6.29074,-6.51681 -3.14062,0.23431 -6.32462,0.23694 -9.46661,0.0186 -4.27289,-0.29687 -6.00354,1.37741 -5.89862,5.74085 0.20364,8.47076 0.0439,16.95007 0.0462,25.42584 0.003,11.96582 -0.0149,23.93176 0.0528,35.89728 0.0137,2.41425 -0.36866,5.6322 3.72628,4.65887 5.34378,-1.27014 10.43851,-3.30725 15.26987,-5.94818 1.99027,-1.08789 2.59915,-2.90631 2.49463,-5.92932 M 256.8617,541.88345 c -4.33911,-0.0526 -5.77038,2.37231 -5.73976,6.38153 0.0789,10.33203 0.022,20.66516 0.0207,30.9978 -0.002,15.57306 -0.005,15.42261 15.76883,15.06458 4.4776,-0.10169 5.6715,-1.80127 5.61239,-5.98798 -0.18585,-13.16315 -0.044,-26.33063 -0.064,-39.49646 -0.0101,-6.60498 -0.38178,-6.93683 -7.2117,-6.97888 -2.4997,-0.0154 -4.99958,0.003 -8.38642,0.0194 z"
     id="path20-6"
     style="fill:#000000;fill-opacity:1" /><path
     fill="#000000"
     opacity="1"
     stroke="none"
     d="m 93.777687,534.4399 c -18.37654,-80.89215 19.368773,-163.47003 94.892283,-199.74029 24.94249,-11.97864 51.23157,-17.84723 78.70976,-17.29529 83.00824,1.66748 153.5134,58.29538 170.61838,142.22064 16.26437,79.80091 -24.48843,160.73438 -97.27945,197.17639 -28.65341,14.34504 -59.04938,19.78437 -90.60377,16.65821 -77.61283,-7.68921 -138.34547,-65.52826 -155.848093,-137.16773 -0.11841,-0.48462 -0.27984,-0.95886 -0.48911,-1.85193 M 365.49262,477.70477 c 2.7789,12.85818 2.76132,25.83151 0.61963,38.69903 -9.77066,58.70358 -67.93064,96.4473 -125.57505,81.21726 -53.88771,-14.23743 -84.50718,-64.90247 -76.53622,-116.4195 5.31918,-34.37851 23.77435,-60.20792 54.56096,-76.8905 3.36526,-1.82358 6.9266,-3.30347 10.20708,-5.26102 4.53564,-2.70663 6.01762,-8.04257 3.80865,-12.5881 -2.26305,-4.65683 -6.42143,-6.35334 -11.66064,-4.40122 -3.73558,1.39185 -7.43055,2.98404 -10.94935,4.85266 -49.23158,26.14417 -75.16926,81.55088 -63.52351,136.10294 13.2567,62.09802 73.18491,105.71204 136.96724,96.26862 56.91104,-8.42597 99.52777,-55.82502 103.12933,-113.29224 2.04084,-32.56394 -7.74163,-61.80063 -28.43563,-87.14017 -13.77024,-16.86148 -30.84562,-29.25397 -51.36191,-36.80569 -3.94965,-1.45383 -7.13275,-0.77503 -9.82871,2.41882 -4.87686,5.7775 -2.2507,12.89941 5.94431,16.53137 33.49286,14.84378 54.65869,39.88086 62.63382,76.70774 m -118.9308,16.58209 c 2.39718,11.57944 -4.081,20.36212 -8.95865,30.69937 -8.07263,-12.75498 -15.51708,-24.51737 -22.9615,-36.27976 0.3999,-0.28982 0.79982,-0.57965 1.19973,-0.86947 7.20195,5.95276 12.74103,13.66116 19.84778,20.38568 1.98444,-2.64298 2.80475,-4.87015 2.99722,-7.42233 0.58713,-7.78492 -2.01835,-14.42398 -7.2785,-20.03458 -7.09524,-7.56796 -16.24637,-11.46167 -26.05453,-13.94202 -3.58405,-0.90637 -7.1325,-2.79242 -11.79456,-1.50644 4.11273,15.28089 6.64726,30.79612 16.09406,43.83127 3.08169,4.25229 7.19734,7.67807 12.22259,9.14594 4.2385,1.23803 6.29373,3.96814 7.85025,7.57989 1.66135,3.85492 2.6667,7.83313 2.65196,12.08405 -0.0479,13.82898 -0.0165,27.65832 0.001,41.48749 0.008,6.32666 1.22543,7.427 8.43973,7.31677 0,-12.7901 0.33787,-25.60303 -0.0809,-38.3913 -0.59633,-18.21112 8.04892,-33.13373 17.12913,-47.5617 6.72132,-10.67969 16.39011,-19.23929 25.50742,-28.03837 0.8829,-0.85208 1.60174,-2.21551 4.13287,-1.48452 -8.95251,14.38324 -18.84097,27.93191 -27.23462,43.68387 14.01779,-0.66184 24.71125,-5.20371 32.71726,-15.0134 13.33783,-16.34265 16.06241,-36.37052 19.41409,-55.92844 -1.69525,-1.36249 -2.98032,-0.83829 -4.28278,-0.63873 -6.26696,0.96033 -12.45199,2.41605 -18.36749,4.58725 -21.81518,8.00699 -39.82191,19.7814 -43.19166,46.30948 m 92.59251,62.76217 c 5.09082,-5.56591 6.95184,-11.94116 6.6879,-19.61474 -0.52079,-15.13837 -0.19486,-30.3075 -0.13813,-45.46359 0.0537,-14.35285 0.62372,-13.22977 -13.32217,-13.19202 -6.61774,0.0179 -7.12262,0.51468 -7.12781,7.1383 -0.0197,25.14945 -0.0126,50.29892 -0.007,75.44834 2.5e-4,1.16443 -0.0413,2.34936 0.14871,3.48938 0.53833,3.23041 2.32761,4.1405 4.76477,1.8302 3.01114,-2.85443 5.69205,-6.05713 8.99387,-9.63587 M 254.34752,397.93121 c 0.006,7.8197 -0.0865,15.64117 0.0516,23.45855 0.10436,5.91019 3.95676,9.61682 9.70969,9.71076 6.26309,0.10223 10.44763,-3.33625 10.49505,-9.4267 0.15677,-20.13025 0.18888,-40.26398 -0.0294,-60.39316 -0.0713,-6.58056 -4.09832,-9.75876 -10.77923,-9.57342 -6.25058,0.1734 -9.40349,3.53937 -9.43218,10.28473 -0.0495,11.64621 -0.0145,23.29278 -0.0155,35.93924 m 57.34328,177.50894 c -9.2e-4,-17.7826 -0.10315,-35.56623 0.0661,-53.34717 0.0441,-4.63538 -1.41232,-6.88077 -6.29074,-6.51682 -3.14063,0.23432 -6.32462,0.23694 -9.46661,0.0186 -4.27289,-0.29687 -6.00354,1.37741 -5.89862,5.74085 0.20364,8.47076 0.0439,16.95007 0.0462,25.42584 0.003,11.96582 -0.0149,23.93176 0.0528,35.89728 0.0137,2.41424 -0.36866,5.6322 3.72628,4.65887 5.34378,-1.27014 10.43851,-3.30725 15.26987,-5.94818 1.99026,-1.08789 2.59915,-2.90631 2.49463,-5.92932 m -50.58539,-36.61994 c -4.33911,-0.0526 -5.77039,2.37232 -5.73976,6.38153 0.0789,10.33204 0.022,20.66517 0.0207,30.99781 -0.002,15.57306 -0.005,15.4226 15.76883,15.06457 4.4776,-0.10168 5.67151,-1.80127 5.6124,-5.98797 -0.18585,-13.16315 -0.044,-26.33063 -0.064,-39.49646 -0.0101,-6.60498 -0.38177,-6.93683 -7.2117,-6.97889 -2.49969,-0.0154 -4.99957,0.003 -8.38641,0.0194 z"
     id="path20-5"
     style="fill:#1bb258;fill-opacity:1" /></g>



















<path
   fill="#000000"
   opacity="1"
   stroke="none"
   d="M 8.7621359,217.76252 C -9.6144031,136.87037 28.130903,54.29249 103.65441,18.02223 128.5969,6.0435903 154.88598,0.17500028 182.36417,0.72694028 265.37241,2.3944203 335.87757,59.02232 352.98255,142.94758 369.24692,222.74849 328.49412,303.68196 255.7031,340.12397 227.04969,354.46901 196.65372,359.90834 165.09933,356.78218 87.486503,349.09297 26.753863,291.25392 9.2512459,219.61445 c -0.11841,-0.48462 -0.27984,-0.95886 -0.48911,-1.85193 M 280.47706,161.02739 c 2.7789,12.85818 2.76132,25.83151 0.61963,38.69903 -9.77066,58.70358 -67.93064,96.4473 -125.57505,81.21726 -53.88771,-14.23743 -84.507177,-64.90247 -76.536217,-116.4195 5.31918,-34.37851 23.774347,-60.20792 54.560957,-76.8905 3.36526,-1.82358 6.9266,-3.30347 10.20708,-5.26102 4.53564,-2.70663 6.01762,-8.04257 3.80865,-12.5881 -2.26305,-4.65683 -6.42143,-6.35334 -11.66064,-4.40122 -3.73558,1.39185 -7.43055,2.98404 -10.94935,4.85266 -49.231577,26.14417 -75.169257,81.55088 -63.523507,136.10294 13.2567,62.09802 73.184907,105.71204 136.967237,96.26862 56.91104,-8.42597 99.52777,-55.82502 103.12933,-113.29224 2.04084,-32.56394 -7.74163,-61.80063 -28.43563,-87.14017 -13.77024,-16.86148 -30.84562,-29.25397 -51.36191,-36.80569 -3.94965,-1.45383 -7.13275,-0.77503 -9.82871,2.41882 -4.87686,5.7775 -2.2507,12.89941 5.94431,16.53137 33.49286,14.84378 54.65869,39.88086 62.63382,76.70774 m -118.9308,16.58209 c 2.39718,11.57944 -4.081,20.36212 -8.95865,30.69937 -8.07263,-12.75498 -15.51708,-24.51737 -22.9615,-36.27976 0.3999,-0.28982 0.79982,-0.57965 1.19973,-0.86947 7.20195,5.95276 12.74103,13.66116 19.84778,20.38568 1.98444,-2.64298 2.80475,-4.87015 2.99722,-7.42233 0.58713,-7.78492 -2.01835,-14.42398 -7.2785,-20.03458 -7.09524,-7.56796 -16.24637,-11.46167 -26.05453,-13.94202 -3.58405,-0.90637 -7.1325,-2.79242 -11.79456,-1.50644 4.11273,15.28089 6.64726,30.79612 16.09406,43.83127 3.08169,4.25229 7.19734,7.67807 12.22259,9.14594 4.2385,1.23803 6.29373,3.96814 7.85025,7.57989 1.66135,3.85492 2.6667,7.83313 2.65196,12.08405 -0.0479,13.82898 -0.0165,27.65832 0.001,41.48749 0.008,6.32666 1.22543,7.427 8.43973,7.31677 0,-12.7901 0.33787,-25.60303 -0.0809,-38.3913 -0.59633,-18.21112 8.04892,-33.13373 17.12913,-47.5617 6.72132,-10.67969 16.39011,-19.23929 25.50742,-28.03837 0.8829,-0.85208 1.60174,-2.21551 4.13287,-1.48452 -8.95251,14.38324 -18.84097,27.93191 -27.23462,43.68387 14.01779,-0.66184 24.71125,-5.20371 32.71726,-15.0134 13.33783,-16.34265 16.06241,-36.37052 19.41409,-55.92844 -1.69525,-1.36249 -2.98032,-0.83829 -4.28278,-0.63873 -6.26696,0.96033 -12.45199,2.41605 -18.36749,4.58725 -21.81518,8.00699 -39.82191,19.7814 -43.19166,46.30948 m 92.59251,62.76217 c 5.09082,-5.56591 6.95184,-11.94116 6.6879,-19.61474 -0.52079,-15.13837 -0.19486,-30.3075 -0.13813,-45.46359 0.0537,-14.35285 0.62372,-13.22977 -13.32217,-13.19202 -6.61774,0.0179 -7.12262,0.51468 -7.12781,7.1383 -0.0197,25.14945 -0.0126,50.29892 -0.007,75.44834 2.5e-4,1.16443 -0.0413,2.34936 0.14871,3.48938 0.53833,3.23041 2.32761,4.1405 4.76477,1.8302 3.01114,-2.85443 5.69205,-6.05713 8.99387,-9.63587 M 169.33196,81.25383 c 0.006,7.8197 -0.0865,15.64117 0.0516,23.45855 0.10436,5.91019 3.95676,9.61682 9.70969,9.71076 6.26309,0.10223 10.44763,-3.33625 10.49505,-9.4267 0.15677,-20.13025 0.18888,-40.26398 -0.0294,-60.39316 -0.0713,-6.58056 -4.09832,-9.75876 -10.77923,-9.57342 -6.25058,0.1734 -9.40349,3.53937 -9.43218,10.28473 -0.0495,11.64621 -0.0145,23.29278 -0.0155,35.93924 m 57.34328,177.50894 c -9.2e-4,-17.7826 -0.10315,-35.56623 0.0661,-53.34717 0.0441,-4.63538 -1.41232,-6.88077 -6.29074,-6.51682 -3.14063,0.23432 -6.32462,0.23694 -9.46661,0.0186 -4.27289,-0.29687 -6.00354,1.37741 -5.89862,5.74085 0.20364,8.47076 0.0439,16.95007 0.0462,25.42584 0.003,11.96582 -0.0149,23.93176 0.0528,35.89728 0.0137,2.41424 -0.36866,5.6322 3.72628,4.65887 5.34378,-1.27014 10.43851,-3.30725 15.26987,-5.94818 1.99026,-1.08789 2.59915,-2.90631 2.49463,-5.92932 m -50.58539,-36.61994 c -4.33911,-0.0526 -5.77039,2.37232 -5.73976,6.38153 0.0789,10.33204 0.022,20.66517 0.0207,30.99781 -0.002,15.57306 -0.005,15.4226 15.76883,15.06457 4.4776,-0.10168 5.67151,-1.80127 5.6124,-5.98797 -0.18585,-13.16315 -0.044,-26.33063 -0.064,-39.49646 -0.0101,-6.60498 -0.38177,-6.93683 -7.2117,-6.97889 -2.49969,-0.0154 -4.99957,0.003 -8.38641,0.0194 z"
   id="path20"
   style="fill:#106632;fill-opacity:1" /></svg>
